<svg width="210" height="250" viewBox="0 0 210 250" fill="none" xmlns="http://www.w3.org/2000/svg">
<g clip-path="url(#clip0_4_210)">
<g filter="url(#filter0_ddd_4_210)">
<path d="M70.3683 208.754L119.761 71.976L168.499 208.754" stroke="#2ECC71" stroke-width="16" stroke-linejoin="round"/>
<path d="M93.9197 164.681C117.368 175.826 121.844 175.826 144.948 164.681" stroke="#2ECC71" stroke-width="16" stroke-miterlimit="16"/>
<path d="M61.611 179.248C64.7591 186.146 63.2387 195.955 62.2127 200.667C61.8742 202.221 60.5087 203.062 59.2113 202.514C55.2782 200.856 47.4355 196.812 44.2874 189.914C41.2207 183.194 41.9113 172.236 42.5504 166.558C42.7648 164.652 44.4661 163.604 45.9443 164.468C50.349 167.041 58.5442 172.527 61.611 179.248Z" fill="#2ECC71"/>
<path d="M58.609 147.131C59.7594 153.096 57.1941 160.054 55.5395 163.712C54.8823 165.165 53.3291 165.569 52.201 164.581C49.3609 162.092 44.4858 157.071 43.3354 151.106C42.2198 145.32 44.3674 137.403 45.8717 132.89C46.4816 131.061 48.4019 130.561 49.6252 131.913C52.6432 135.249 57.4934 141.346 58.609 147.131Z" fill="#2ECC71"/>
<path d="M66.151 121.967C66.4797 127.02 63.3714 132.395 61.4238 135.229C60.6022 136.424 59.1354 136.552 58.1684 135.514C55.8764 133.052 52.1082 128.282 51.7795 123.229C51.462 118.347 54.2863 112.167 56.1957 108.603C57.0348 107.036 58.8609 106.876 59.8931 108.279C62.2418 111.469 65.8335 117.087 66.151 121.967Z" fill="#2ECC71"/>
<path d="M86.0278 80.6416C85.8041 84.7218 83.1101 88.6344 81.2482 90.8768C80.297 92.0227 78.7583 91.9088 77.9392 90.6322C76.3371 88.1344 74.0912 83.8571 74.3149 79.7765C74.5295 75.8609 77.06 71.3519 78.9362 68.5098C79.9372 66.9941 81.8448 67.135 82.6718 68.7857C84.2235 71.881 86.2418 76.7261 86.0278 80.6416Z" fill="#2ECC71"/>
<path d="M75.8361 99.8464C75.8917 104.422 72.7509 109.067 70.7673 111.539C69.8933 112.627 68.4665 112.65 67.5663 111.591C65.5236 109.185 62.271 104.645 62.2153 100.07C62.1618 95.6625 65.0645 90.2978 67.0442 87.1603C67.9608 85.7074 69.7441 85.6785 70.6953 87.1002C72.7502 90.1717 75.7824 95.4391 75.8361 99.8464Z" fill="#2ECC71"/>
<path d="M97.9037 66.6233C97.2566 69.7664 94.386 72.304 92.4515 73.6977C91.4159 74.4435 90.1029 74.0787 89.4696 72.8695C88.2875 70.61 86.7154 66.8384 87.3624 63.6953C87.98 60.6985 90.7355 57.6837 92.7453 55.8214C93.9052 54.7472 95.5544 55.2055 96.1707 56.7727C97.2377 59.4899 98.5212 63.6265 97.9037 66.6233Z" fill="#2ECC71"/>
<path d="M107.61 56.3747C106.763 58.3685 104.837 59.7519 103.301 60.5849C102.092 61.2407 100.738 60.4642 100.45 58.9507C100.085 57.028 99.8596 54.4112 100.707 52.4174C101.5 50.552 103.363 48.9224 104.962 47.7911C106.335 46.8206 108.011 47.7816 108.182 49.6372C108.383 51.7999 108.402 54.5092 107.61 56.3747Z" fill="#2ECC71"/>
<g filter="url(#filter1_d_4_210)">
<path d="M121.831 51.4926C120.255 52.9079 118.302 53.9184 116.504 54.6253C114.071 55.5817 112.022 53.3349 113.224 51.0284C114.112 49.3237 115.321 47.4976 116.897 46.0822C118.32 44.8061 120.199 43.7221 122.041 42.852C124.744 41.5759 127.134 44.1969 125.585 46.7374C124.528 48.4693 123.253 50.2164 121.831 51.4926Z" fill="#3498DB"/>
</g>
</g>
</g>
<defs>
<filter id="filter0_ddd_4_210" x="-18" y="-17.4815" width="254.035" height="288.952" filterUnits="userSpaceOnUse" color-interpolation-filters="sRGB">
<feFlood flood-opacity="0" result="BackgroundImageFix"/>
<feColorMatrix in="SourceAlpha" type="matrix" values="0 0 0 0 0 0 0 0 0 0 0 0 0 0 0 0 0 0 127 0" result="hardAlpha"/>
<feOffset/>
<feGaussianBlur stdDeviation="30"/>
<feColorMatrix type="matrix" values="0 0 0 0 0.180392 0 0 0 0 0.8 0 0 0 0 0.443137 0 0 0 0.15 0"/>
<feBlend mode="normal" in2="BackgroundImageFix" result="effect1_dropShadow_4_210"/>
<feColorMatrix in="SourceAlpha" type="matrix" values="0 0 0 0 0 0 0 0 0 0 0 0 0 0 0 0 0 0 127 0" result="hardAlpha"/>
<feOffset/>
<feGaussianBlur stdDeviation="10"/>
<feColorMatrix type="matrix" values="0 0 0 0 0.180392 0 0 0 0 0.8 0 0 0 0 0.443137 0 0 0 0.4 0"/>
<feBlend mode="normal" in2="effect1_dropShadow_4_210" result="effect2_dropShadow_4_210"/>
<feColorMatrix in="SourceAlpha" type="matrix" values="0 0 0 0 0 0 0 0 0 0 0 0 0 0 0 0 0 0 127 0" result="hardAlpha"/>
<feOffset/>
<feGaussianBlur stdDeviation="2"/>
<feColorMatrix type="matrix" values="0 0 0 0 0.180392 0 0 0 0 0.8 0 0 0 0 0.443137 0 0 0 0.8 0"/>
<feBlend mode="normal" in2="effect2_dropShadow_4_210" result="effect3_dropShadow_4_210"/>
<feBlend mode="normal" in="SourceGraphic" in2="effect3_dropShadow_4_210" result="shape"/>
</filter>
<filter id="filter1_d_4_210" x="108.87" y="38.5185" width="21.2038" height="20.3327" filterUnits="userSpaceOnUse" color-interpolation-filters="sRGB">
<feFlood flood-opacity="0" result="BackgroundImageFix"/>
<feColorMatrix in="SourceAlpha" type="matrix" values="0 0 0 0 0 0 0 0 0 0 0 0 0 0 0 0 0 0 127 0" result="hardAlpha"/>
<feOffset/>
<feGaussianBlur stdDeviation="2"/>
<feComposite in2="hardAlpha" operator="out"/>
<feColorMatrix type="matrix" values="0 0 0 0 0.203922 0 0 0 0 0.596078 0 0 0 0 0.858824 0 0 0 0.46 0"/>
<feBlend mode="normal" in2="BackgroundImageFix" result="effect1_dropShadow_4_210"/>
<feBlend mode="normal" in="SourceGraphic" in2="effect1_dropShadow_4_210" result="shape"/>
</filter>
<clipPath id="clip0_4_210">
<rect width="210" height="250" fill="white"/>
</clipPath>
</defs>
</svg>
