<svg width="321" height="329" viewBox="0 0 321 329" fill="none" xmlns="http://www.w3.org/2000/svg">
<g filter="url(#filter0_ddd_4_109)">
<path d="M103.363 265.508L178.863 85.5084L253.363 265.508" stroke="#2ECC71" stroke-width="16" stroke-linejoin="round"/>
<path d="M139.363 207.508C175.206 222.175 182.047 222.175 217.363 207.508" stroke="#2ECC71" stroke-width="16" stroke-miterlimit="16"/>
<path d="M89.9768 226.678C94.7889 235.756 92.4649 248.665 90.8965 254.866C90.3791 256.911 88.2918 258.017 86.3087 257.297C80.2967 255.115 68.3085 249.793 63.4965 240.715C58.8087 231.871 59.8644 217.451 60.8413 209.978C61.1691 207.47 63.7696 206.091 66.0292 207.228C72.762 210.614 85.289 217.834 89.9768 226.678Z" fill="#2ECC71"/>
<path d="M85.3881 184.413C87.1465 192.263 83.2253 201.419 80.6961 206.233C79.6915 208.145 77.3173 208.677 75.5929 207.376C71.2517 204.101 63.7997 197.493 62.0413 189.643C60.3359 182.029 63.6187 171.61 65.9182 165.671C66.8504 163.264 69.7857 162.606 71.6557 164.386C76.2688 168.776 83.6828 176.8 85.3881 184.413Z" fill="#2ECC71"/>
<path d="M96.9165 151.297C97.4189 157.947 92.6677 165.02 89.6906 168.749C88.4348 170.322 86.1926 170.491 84.7146 169.125C81.2111 165.885 75.4511 159.607 74.9487 152.957C74.4634 146.533 78.7805 138.4 81.6991 133.71C82.9818 131.648 85.773 131.437 87.3508 133.283C90.941 137.481 96.4312 144.874 96.9165 151.297Z" fill="#2ECC71"/>
<path d="M133.414 99.5444C133.072 104.914 128.954 110.063 126.108 113.014C124.654 114.522 122.302 114.372 121.05 112.692C118.601 109.405 115.168 103.776 115.51 98.4059C115.838 93.253 119.706 87.3192 122.574 83.579C124.104 81.5843 127.02 81.7697 128.284 83.9421C130.656 88.0155 133.741 94.3916 133.414 99.5444Z" fill="#2ECC71"/>
<path d="M114.778 123.502C114.863 129.523 110.062 135.636 107.03 138.889C105.694 140.321 103.513 140.352 102.137 138.958C99.0147 135.792 94.0428 129.817 93.9577 123.796C93.8758 117.996 98.3129 110.936 101.339 106.807C102.74 104.895 105.466 104.857 106.92 106.728C110.061 110.77 114.696 117.702 114.778 123.502Z" fill="#2ECC71"/>
<path d="M151.567 82.4124C150.578 86.5487 146.19 89.8882 143.233 91.7222C141.65 92.7037 139.643 92.2236 138.675 90.6323C136.868 87.6589 134.465 82.6954 135.454 78.5591C136.398 74.6153 140.61 70.6478 143.682 68.197C145.455 66.7834 147.976 67.3865 148.918 69.449C150.549 73.0248 152.511 78.4686 151.567 82.4124Z" fill="#2ECC71"/>
<path d="M169.461 72.8731C168.166 75.497 165.222 77.3175 162.875 78.4138C161.027 79.2768 158.956 78.255 158.517 76.2632C157.959 73.7329 157.614 70.2892 158.909 67.6654C160.121 65.2105 162.969 63.0659 165.414 61.5772C167.512 60.2999 170.074 61.5647 170.336 64.0066C170.642 66.8527 170.672 70.4182 169.461 72.8731Z" fill="#2ECC71"/>
<g filter="url(#filter1_d_4_109)">
<path d="M183.009 69.9402C181.372 71.5815 179.303 72.7998 177.385 73.6763C174.79 74.8622 172.435 72.5125 173.615 69.9145C174.486 67.9945 175.7 65.9232 177.337 64.2819C178.814 62.802 180.799 61.5072 182.756 60.4492C185.626 58.8974 188.374 61.6385 186.829 64.5126C185.776 66.472 184.485 68.4603 183.009 69.9402Z" fill="#3498DB"/>
</g>
</g>
<defs>
<filter id="filter0_ddd_4_109" x="0" y="0" width="320.755" height="328.603" filterUnits="userSpaceOnUse" color-interpolation-filters="sRGB">
<feFlood flood-opacity="0" result="BackgroundImageFix"/>
<feColorMatrix in="SourceAlpha" type="matrix" values="0 0 0 0 0 0 0 0 0 0 0 0 0 0 0 0 0 0 127 0" result="hardAlpha"/>
<feOffset/>
<feGaussianBlur stdDeviation="30"/>
<feColorMatrix type="matrix" values="0 0 0 0 0.180392 0 0 0 0 0.8 0 0 0 0 0.443137 0 0 0 0.15 0"/>
<feBlend mode="normal" in2="BackgroundImageFix" result="effect1_dropShadow_4_109"/>
<feColorMatrix in="SourceAlpha" type="matrix" values="0 0 0 0 0 0 0 0 0 0 0 0 0 0 0 0 0 0 127 0" result="hardAlpha"/>
<feOffset/>
<feGaussianBlur stdDeviation="10"/>
<feColorMatrix type="matrix" values="0 0 0 0 0.180392 0 0 0 0 0.8 0 0 0 0 0.443137 0 0 0 0.4 0"/>
<feBlend mode="normal" in2="effect1_dropShadow_4_109" result="effect2_dropShadow_4_109"/>
<feColorMatrix in="SourceAlpha" type="matrix" values="0 0 0 0 0 0 0 0 0 0 0 0 0 0 0 0 0 0 127 0" result="hardAlpha"/>
<feOffset/>
<feGaussianBlur stdDeviation="2"/>
<feColorMatrix type="matrix" values="0 0 0 0 0.180392 0 0 0 0 0.8 0 0 0 0 0.443137 0 0 0 0.8 0"/>
<feBlend mode="normal" in2="effect2_dropShadow_4_109" result="effect3_dropShadow_4_109"/>
<feBlend mode="normal" in="SourceGraphic" in2="effect3_dropShadow_4_109" result="shape"/>
</filter>
<filter id="filter1_d_4_109" x="169.302" y="56" width="21.9724" height="21.9922" filterUnits="userSpaceOnUse" color-interpolation-filters="sRGB">
<feFlood flood-opacity="0" result="BackgroundImageFix"/>
<feColorMatrix in="SourceAlpha" type="matrix" values="0 0 0 0 0 0 0 0 0 0 0 0 0 0 0 0 0 0 127 0" result="hardAlpha"/>
<feOffset/>
<feGaussianBlur stdDeviation="2"/>
<feComposite in2="hardAlpha" operator="out"/>
<feColorMatrix type="matrix" values="0 0 0 0 0.203922 0 0 0 0 0.596078 0 0 0 0 0.858824 0 0 0 0.46 0"/>
<feBlend mode="normal" in2="BackgroundImageFix" result="effect1_dropShadow_4_109"/>
<feBlend mode="normal" in="SourceGraphic" in2="effect1_dropShadow_4_109" result="shape"/>
</filter>
</defs>
</svg>
